<svg id="Capa_1" enable-background="new 0 0 512 512" height="512" viewBox="0 0 512 512" width="512" xmlns="http://www.w3.org/2000/svg"><g><g><path d="m155.471 183.488h-108.437c-7.25 0-13.147 5.898-13.147 13.147v42.923c0 7.25 5.897 13.147 13.147 13.147h54.966c4.143 0 7.5-3.358 7.5-7.5s-3.357-7.5-7.5-7.5h-53.113v-39.218h104.731v39.218h-16.618c-4.143 0-7.5 3.358-7.5 7.5s3.357 7.5 7.5 7.5h18.471c7.25 0 13.147-5.898 13.147-13.147v-42.923c0-7.249-5.897-13.147-13.147-13.147z"/><circle cx="45.5" cy="271.5" r="7.5"/><circle cx="71.5" cy="271.5" r="7.5"/><circle cx="97.5" cy="271.5" r="7.5"/><path d="m218.442 183.488c-13.166 0-23.878 10.712-23.878 23.878s10.712 23.878 23.878 23.878c13.167 0 23.879-10.712 23.879-23.878s-10.712-23.878-23.879-23.878zm0 32.757c-4.896 0-8.878-3.983-8.878-8.878s3.982-8.878 8.878-8.878 8.879 3.983 8.879 8.878-3.983 8.878-8.879 8.878z"/><path d="m231.997 239.494h-27.109c-4.143 0-7.5 3.358-7.5 7.5s3.357 7.5 7.5 7.5h27.109c4.143 0 7.5-3.358 7.5-7.5s-3.357-7.5-7.5-7.5z"/><path d="m158.118 261.494h-22.238c-5.79 0-10.5 4.71-10.5 10.5v22.239c0 5.79 4.71 10.5 10.5 10.5h22.238c5.79 0 10.5-4.71 10.5-10.5v-22.239c0-5.79-4.71-10.5-10.5-10.5zm-4.5 28.238h-13.238v-13.239h13.238z"/><path d="m483.764 178.415c-2.673 1.219-4.388 3.886-4.388 6.824v43.761c0 4.142 3.357 7.5 7.5 7.5s7.5-3.358 7.5-7.5v-38.939l13.236-6.037c2.673-1.219 4.388-3.886 4.388-6.824v-20.2c0-4.142-3.357-7.5-7.5-7.5h-37.953c-1.604 0-3.167.515-4.457 1.468l-35.74 26.408h-76.598c-7.128 0-12.936 5.705-13.129 12.788h-28.035c-.934-9.497-8.963-16.943-18.701-16.943h-13.962v-6.119c0-9.649-7.851-17.5-17.5-17.5h-12.925v-15.882c0-4.136 3.364-7.5 7.5-7.5h18.5v6.227c0 6.893 5.607 12.5 12.5 12.5h105.772c14.461 0 26.227-11.765 26.227-26.227s-11.766-26.227-26.227-26.227h-105.772c-6.893 0-12.5 5.607-12.5 12.5v6.227h-18.5c-12.406 0-22.5 10.093-22.5 22.5v15.881h-21v-26.466c12.26-4.655 21-16.519 21-30.392 0-17.92-14.579-32.5-32.5-32.5-8.685 0-16.578 3.431-22.415 9h-55.585v-12.75c0-5.79-4.71-10.5-10.5-10.5h-86c-5.79 0-10.5 4.71-10.5 10.5v17.682c0 2.932 1.238 5.75 3.398 7.735l59.169 54.318c1.942 1.783 4.464 2.765 7.101 2.765h26.832c5.79 0 10.5-4.71 10.5-10.5v-12.25h26.928l12.13 33.358h-141.558c-9.649 0-17.5 7.851-17.5 17.5v136.691c0 17.92 14.579 32.5 32.5 32.5h15.306l16.498 26.864c3.394 5.527 9.53 8.96 16.016 8.96h.505v23.271c0 6.893 5.607 12.5 12.5 12.5h5.5v45.619c0 6.893 5.607 12.5 12.5 12.5h25.642c6.893 0 12.5-5.607 12.5-12.5v-45.619h5.5c6.893 0 12.5-5.607 12.5-12.5v-23.271h7.467c5.496 0 10.432-2.382 13.867-6.158 9.698 7.832 22.021 12.535 35.429 12.535 8.845 0 17.329-1.999 25.218-5.942 3.705-1.852 5.208-6.357 3.356-10.062-1.854-3.706-6.357-5.206-10.062-3.356-5.789 2.893-12.018 4.36-18.513 4.36-22.883 0-41.5-18.617-41.5-41.5s18.617-41.5 41.5-41.5 41.5 18.617 41.5 41.5c0 5.255-.981 10.395-2.917 15.278-1.526 3.851.358 8.209 4.209 9.736 3.852 1.524 8.209-.357 9.736-4.208 2.636-6.65 3.972-13.649 3.972-20.805 0-8.095-1.724-15.791-4.804-22.759v-8.094h13.962c9.738 0 17.768-7.446 18.701-16.943h28.035c.193 7.082 6.001 12.788 13.129 12.788h76.689l35.782 25.243c1.265.893 2.775 1.372 4.323 1.372h37.954c4.143 0 7.5-3.358 7.5-7.5v-20.032c0-2.916-1.69-5.568-4.334-6.799l-13.29-6.188v-9.082c0-4.142-3.357-7.5-7.5-7.5s-7.5 3.358-7.5 7.5v13.861c0 2.916 1.69 5.568 4.334 6.799l13.29 6.188v7.751h-28.074l-32.605-23.002v-86.937l32.697-24.16h27.982v7.878zm-163.145-70.921h69.153c6.19 0 11.227 5.036 11.227 11.227s-5.036 11.227-11.227 11.227h-69.153zm-34.119 0h19.119v22.453h-19.119zm-181.5 16.5h-20.579l-56.421-51.796v-11.204h77zm93-48.75c9.649 0 17.5 7.851 17.5 17.5s-7.851 17.5-17.5 17.5-17.5-7.851-17.5-17.5 7.851-17.5 17.5-17.5zm-3.5 49.806v24.551h-19.48l-12.13-33.358h12.696c5.04 4.811 11.619 8.021 18.914 8.807zm-74.5-23.806v-17h46.635c-.736 2.711-1.135 5.559-1.135 8.5s.4 5.789 1.135 8.5zm14.466 349.762h-20.642v-43.119h20.642zm18-58.118h-56.642v-20.771h56.642zm22.467-35.771h-94.614c-1.31 0-2.549-.693-3.234-1.81l-11.677-19.015h104.158c1.779 6.794 4.794 13.093 8.789 18.641-.609 1.286-1.908 2.184-3.422 2.184zm85.992-78.032c-9.881-8.463-22.697-13.592-36.696-13.592-30.919 0-56.104 24.968-56.482 55.799h-135.247c-9.649 0-17.5-7.851-17.5-17.5v-136.69c0-1.378 1.121-2.5 2.5-2.5h240.925c1.379 0 2.5 1.122 2.5 2.5zm32.757-6.739c0 2.093-1.702 3.795-3.795 3.795h-13.962v-87.92h13.962c2.093 0 3.795 1.703 3.795 3.795zm42.922-13.148h-27.923v-54.034h27.923zm84.716 12.787h-16.627v-16.627h16.627zm0-31.627h-18.479c-7.25 0-13.147 5.898-13.147 13.147v18.479h-38.089v-79.609h69.716v47.983z"/><path d="m224.229 292.494c-16.267 0-29.5 13.234-29.5 29.5s13.233 29.5 29.5 29.5 29.5-13.234 29.5-29.5-13.234-29.5-29.5-29.5zm0 44c-7.995 0-14.5-6.505-14.5-14.5s6.505-14.5 14.5-14.5 14.5 6.505 14.5 14.5-6.505 14.5-14.5 14.5z"/><path d="m104 286.5h-62.613c-4.143 0-7.5 3.358-7.5 7.5s3.357 7.5 7.5 7.5h62.613c4.143 0 7.5-3.358 7.5-7.5s-3.357-7.5-7.5-7.5z"/></g></g></svg>