<svg id="Capa_1" enable-background="new 0 0 512 512" height="512" viewBox="0 0 512 512" width="512" xmlns="http://www.w3.org/2000/svg"><g id="XMLID_334_"><circle id="XMLID_335_" cx="183.481" cy="211.221" r="12"/><circle id="XMLID_389_" cx="141.845" cy="123.097" r="12"/><circle id="XMLID_390_" cx="323.327" cy="183.887" r="12"/><circle id="XMLID_1020_" cx="392.22" cy="115.221" r="12"/><circle id="XMLID_1021_" cx="238.815" cy="134.554" r="12"/><path id="XMLID_1056_" d="m489.029 110.225h-18.349c-6.987 0-13.654 1.38-19.759 3.862.714-5.486.233-11.168-1.559-16.683-3.967-12.207-13.566-21.346-25.657-24.769-6.991-10.441-18.649-16.747-31.483-16.747-.001 0 0 0-.001 0-2.867 0-5.67.331-8.382.937.366-2.43.556-4.904.556-7.408 0-13.082-5.094-25.38-14.344-34.631l-11.857-11.857c-1.876-1.876-4.419-2.929-7.072-2.929s-5.196 1.054-7.071 2.929l-11.856 11.856c-11.782 11.782-16.283 28.122-13.526 43.396-1.117-.111-2.245-.181-3.387-.181-11.079 0-21.162 5.344-27.343 14.229-8.798 2.657-15.902 8.748-19.951 16.666-7.1-8.585-17.658-13.673-29.174-13.673-2.843 0-5.623.326-8.313.922 2.869-16.347-1.983-33.796-14.584-46.397l-12.975-12.974c-3.905-3.905-10.237-3.904-14.142 0l-12.974 12.974c-9.944 9.944-15.42 23.166-15.42 37.228 0 .546.023 1.088.04 1.631-5.555-3.116-11.915-4.842-18.602-4.842-12.833 0-24.494 6.306-31.485 16.747-12.091 3.423-21.69 12.563-25.657 24.769-2.683 8.257-2.445 16.891.388 24.673-5.978-2.309-12.388-3.53-18.989-3.53-14.062 0-27.284 5.477-37.227 15.42l-12.975 12.974c-1.875 1.875-2.929 4.419-2.929 7.071s1.054 5.196 2.929 7.071l12.975 12.975c9.944 9.943 23.165 15.42 37.228 15.42 5.056 0 10-.719 14.726-2.088 8.748 60.542 41.045 114.809 90.343 151.638-1.803 4.001-2.814 8.432-2.814 13.097 0 13.552 8.472 25.154 20.394 29.812l-25.681 86.223c-2.547 8.551-.949 17.557 4.384 24.709 5.333 7.153 13.508 11.255 22.43 11.255h136.44c8.922 0 17.097-4.102 22.43-11.254s6.931-16.159 4.385-24.71l-25.655-86.134c12.042-4.598 20.621-16.264 20.621-29.902 0-4.66-1.01-9.087-2.809-13.084 38.319-28.676 66.949-68.67 81.602-114.032h6.457c5.522 0 10-4.477 10-10v-18.349c0-4.599-.597-9.06-1.709-13.314h4.738c29.03 0 52.647-23.618 52.647-52.648v-18.348c-.002-5.523-4.48-10-10.002-10zm-135.001 89.28c1.182 6.887-1.488 13.45-7.141 17.558-5.654 4.107-12.722 4.62-18.907 1.367-1.457-.766-3.055-1.148-4.653-1.148s-3.196.383-4.653 1.148c-6.187 3.252-13.254 2.741-18.906-1.366-5.653-4.107-8.323-10.671-7.142-17.559.556-3.244-.52-6.554-2.876-8.851-5.004-4.878-6.702-11.758-4.543-18.404s7.577-11.213 14.492-12.218c3.258-.473 6.073-2.519 7.53-5.47 3.092-6.266 9.109-10.007 16.098-10.007s13.006 3.741 16.1 10.007c1.456 2.951 4.271 4.997 7.528 5.47 6.916 1.005 12.333 5.573 14.492 12.219 2.16 6.646.462 13.525-4.543 18.403-2.357 2.297-3.432 5.607-2.876 8.851zm28.328-27.617h8.349c18.002 0 32.648 14.646 32.648 32.647v8.349h-8.349c-18.002 0-32.648-14.646-32.648-32.648zm25.962-85.993c1.457 2.952 4.272 4.998 7.53 5.471 6.915 1.005 12.333 5.572 14.492 12.218s.461 13.525-4.543 18.403c-2.356 2.297-3.432 5.607-2.876 8.851 1.182 6.888-1.488 13.452-7.142 17.559-5.654 4.108-12.722 4.618-18.906 1.366-2.913-1.533-6.394-1.531-9.307 0-6.187 3.253-13.255 2.74-18.907-1.367s-8.322-10.671-7.141-17.559c.556-3.244-.52-6.554-2.876-8.852-5.005-4.877-6.703-11.757-4.544-18.402 2.16-6.646 7.577-11.214 14.493-12.219 3.257-.473 6.072-2.519 7.528-5.47 3.094-6.267 9.112-10.008 16.1-10.008 6.988.002 13.007 3.742 16.099 10.009zm-61.981-56.967 4.785-4.786 4.786 4.786c5.473 5.473 8.486 12.749 8.486 20.488s-3.014 15.016-8.486 20.488l-4.786 4.786-4.785-4.786c-5.473-5.473-8.487-12.749-8.487-20.488s3.015-15.015 8.487-20.488zm-50.57 61.993c3.258-.473 6.073-2.519 7.53-5.47 2.302-4.665 6.783-7.451 11.985-7.451 5.203 0 9.685 2.786 11.986 7.451 1.457 2.951 4.272 4.997 7.53 5.47.997.145 1.899.381 2.721.675-.955 1.846-1.783 3.78-2.442 5.807-3.32 10.218-2.168 21.011 2.848 30.051-4.533-1.877-9.469-2.901-14.601-2.901-9.916 0-19.12 3.777-26.022 10.305 1.006-5.926.602-12.123-1.347-18.122-2.154-6.628-5.979-12.34-10.951-16.736 1.444-4.353 5.085-8.253 10.763-9.079zm-40.853 14.308c1.457 2.951 4.272 4.997 7.529 5.47 6.915 1.005 12.333 5.572 14.492 12.218s.461 13.525-4.543 18.403c-2.356 2.297-3.432 5.607-2.876 8.851 1.182 6.887-1.488 13.452-7.142 17.559-5.655 4.106-12.72 4.617-18.906 1.366-2.913-1.532-6.394-1.532-9.307 0-6.184 3.25-13.253 2.742-18.906-1.367-5.653-4.107-8.323-10.671-7.142-17.559.557-3.244-.519-6.554-2.876-8.852-5.004-4.877-6.702-11.757-4.543-18.402 2.16-6.646 7.577-11.214 14.493-12.219 3.257-.473 6.073-2.519 7.529-5.471 3.092-6.266 9.11-10.007 16.098-10.007 6.988.002 13.007 3.743 16.1 10.01zm-40.731 121.609c1.181 6.888-1.489 13.452-7.142 17.559-5.652 4.106-12.721 4.618-18.906 1.366-2.912-1.532-6.392-1.531-9.307 0-6.185 3.253-13.253 2.741-18.906-1.366s-8.323-10.671-7.142-17.559c.557-3.244-.519-6.554-2.876-8.852-5.004-4.877-6.702-11.757-4.542-18.403 2.159-6.646 7.577-11.213 14.492-12.218 3.257-.473 6.073-2.519 7.529-5.47 3.093-6.267 9.111-10.008 16.099-10.008s13.006 3.741 16.099 10.008c1.457 2.951 4.272 4.997 7.529 5.47 6.916 1.005 12.333 5.573 14.492 12.218 2.16 6.646.461 13.525-4.542 18.403-2.358 2.298-3.434 5.608-2.877 8.852zm-24.213-182.95 5.903-5.903 5.903 5.903c12.729 12.729 12.729 33.442 0 46.171l-5.904 5.903-5.903-5.903c-6.167-6.167-9.562-14.365-9.562-23.085s3.396-16.919 9.563-23.086zm-86.246 67.572c2.16-6.646 7.577-11.214 14.493-12.219 3.257-.473 6.073-2.519 7.529-5.47 3.093-6.266 9.111-10.007 16.099-10.007s13.006 3.741 16.099 10.008c1.457 2.951 4.272 4.997 7.529 5.47 6.915 1.005 12.333 5.572 14.492 12.218s.461 13.525-4.543 18.403c-2.357 2.297-3.433 5.607-2.876 8.852 1.181 6.887-1.489 13.451-7.142 17.559-5.654 4.107-12.72 4.618-18.906 1.367-1.457-.766-3.055-1.149-4.653-1.149s-3.197.383-4.653 1.149c-6.184 3.251-13.252 2.741-18.906-1.367-5.653-4.107-8.323-10.671-7.142-17.559.557-3.244-.519-6.554-2.876-8.852-5.005-4.878-6.703-11.758-4.544-18.403zm-60.707 56.331-5.904-5.903 5.904-5.903c12.729-12.73 33.442-12.729 46.17 0l5.903 5.903-5.904 5.903c-6.166 6.167-14.365 9.562-23.085 9.562-8.719 0-16.918-3.396-23.084-9.562zm56.694 17.436c1.247-1.038 2.458-2.133 3.619-3.294l7.028-7.028c5.726 3.21 12.067 4.836 18.443 4.836 1.935 0 3.872-.159 5.797-.459-3.667 3.961-6.511 8.742-8.259 14.121-3.966 12.207-1.572 25.243 6.198 35.119-.48 12.557 5.245 24.511 15.628 32.055 10.382 7.544 23.521 9.296 35.315 4.958 4.237 1.559 8.649 2.331 13.044 2.331 1.046 0 2.091-.047 3.133-.135-.838 20.713 1.838 41.04 7.6 60.268h-6.901c-5.667 0-10.991 1.487-15.613 4.082-47.89-35.09-78.567-88.037-85.032-146.854zm233.007 303.564c-1.521 2.04-3.852 3.209-6.396 3.209h-136.44c-2.544 0-4.875-1.169-6.396-3.209s-1.977-4.608-1.25-7.046l26.731-89.745h98.272l26.73 89.744c.726 2.439.271 5.007-1.251 7.047zm-16.615-116.791h-115.747c-6.617 0-12-5.383-12-12s5.383-12 12-12h115.747c6.617 0 12 5.383 12 12s-5.383 12-12 12zm15.608-39.92c-4.621-2.593-9.943-4.08-15.608-4.08h-7.168c8.288-27.636 10.232-57.536 4.488-87.594-3.233 32.316-14.826 62.262-32.617 87.594h-10.527l-12.049-77-12.049 77h-10.768c-12.936-18.419-22.587-39.278-28.137-61.715 4.054-1.212 7.951-3.114 11.521-5.708 10.383-7.544 16.109-19.498 15.628-32.055 7.77-9.876 10.164-22.912 6.198-35.119-.508-1.563-1.111-3.074-1.797-4.531 8.824 3.243 18.399 3.076 27.01-.375 1.339 4.55 3.533 8.86 6.547 12.691-.48 12.557 5.245 24.511 15.628 32.055 10.384 7.544 23.521 9.295 35.315 4.958 4.237 1.558 8.648 2.331 13.043 2.331 7.837 0 15.621-2.456 22.273-7.29 7.316-5.316 12.306-12.825 14.456-21.187 7.905 10.385 19.568 17.757 32.949 20.06-14.075 39.832-40.055 74.812-74.336 99.965zm147.318-193.507c0 18.002-14.646 32.648-32.647 32.648h-8.349v-8.349c0-18.002 14.646-32.647 32.647-32.647h8.349z"/></g></svg>