<svg id="Capa_1" enable-background="new 0 0 512 512" height="512" viewBox="0 0 512 512" width="512" xmlns="http://www.w3.org/2000/svg"><g><g><path d="m458.431 295.51c-4.182 0-7.997-2.706-9.405-6.636-1.404-3.917-.17-8.453 3.061-11.092 3.296-2.692 8.006-2.993 11.621-.758 3.566 2.205 5.404 6.577 4.478 10.668-1.02 4.507-5.124 7.818-9.755 7.818z"/><path d="m474.642 180.116c-3.267-7.488-7.722-10.443-15.104-15.34-9.711-6.442-21.612-11.126-34.213-16.084-.843-.332-1.688-.664-2.532-.997l2.926-3.656c3.451-4.313 2.753-10.605-1.559-14.057-4.312-3.448-10.604-2.753-14.057 1.559l-6.517 8.144c-10.029-4.585-19.622-9.899-28.037-16.918l5.046-3.946c4.35-3.402 5.118-9.688 1.716-14.038-3.403-4.351-9.687-5.117-14.038-1.716l-6.429 5.028c-10.349-14.463-16.869-34.331-16.869-63.145 0-.277-.012-.551-.034-.823-.723-26.431-36.322-44.127-89.042-44.127-53.266 0-89.054 18.063-89.054 44.949 0 28.05-6.976 47.729-17.793 62.265l-5.303-4.147c-4.349-3.402-10.635-2.635-14.038 1.716-3.402 4.351-2.634 10.636 1.716 14.038l3.764 2.944c-8.357 6.972-17.761 12.396-27.433 17.075l-5.84-7.298c-3.45-4.312-9.744-5.009-14.056-1.559-4.312 3.451-5.01 9.744-1.559 14.057l2.539 3.172c-1.082.452-2.161.902-3.235 1.349-12.274 5.113-23.867 9.942-33.324 16.215-7.381 4.896-11.837 7.852-15.104 15.341-.545 1.251-1.681 3.854-.565 28.521.609 13.457 2.123 34.728 5.877 59.638 6.551 43.464 21.244 105.788 54.043 155.876 38.172 58.291 91.794 87.848 159.376 87.848 100.217 0 170.167-61.771 202.286-178.634 1.464-5.325-1.667-10.829-6.992-12.293-5.327-1.466-10.829 1.666-12.293 6.992-29.897 108.78-91.467 163.935-183.001 163.935-48.964 0-89.932-17.46-121.767-51.895-40.956-44.303-59.973-109.313-68.713-156.05-9.004-48.144-9.501-88.073-9.238-97.224.77-1.071 2.271-2.156 7.145-5.39 7.86-5.214 18.595-9.686 29.959-14.419 2.78-1.158 5.632-2.346 8.533-3.584l26.286 32.845c-9.87 3.813-16.889 13.402-16.889 24.601 0 14.536 11.826 26.362 26.362 26.362 9.129 0 17.189-4.665 21.922-11.736l12.492 15.609c-13.81 7.891-22.931 22.833-22.931 39.317 0 24.93 20.286 45.211 45.22 45.211 12.894 0 25.027-5.568 33.478-14.847l8.435 10.539-38.987 38.987c-3.905 3.905-3.905 10.237 0 14.143l51.724 51.724c1.953 1.952 4.512 2.929 7.071 2.929 2.56 0 5.118-.977 7.071-2.929l51.724-51.724c3.905-3.905 3.905-10.237 0-14.143l-38.987-38.987 8.435-10.539c8.451 9.278 20.583 14.846 33.477 14.846 24.935 0 45.221-20.281 45.221-45.211 0-16.484-9.122-31.426-22.931-39.317l12.492-15.609c4.733 7.071 12.793 11.736 21.922 11.736 14.536 0 26.361-11.826 26.361-26.362 0-11.199-7.019-20.788-16.889-24.601l25.822-32.266c2.811 1.134 5.576 2.222 8.272 3.283 11.588 4.561 22.534 8.868 30.483 14.141 4.942 3.278 6.416 4.348 7.176 5.434.249 5.672.614 25.954-1.584 52.896-.449 5.505 3.649 10.331 9.153 10.78.277.022.552.034.824.034 5.154 0 9.529-3.96 9.956-9.188 1.429-17.504 1.789-31.966 1.841-41.015.097-17.271-.537-18.725-1.209-20.265zm-337.053 47.133c-3.508 0-6.362-2.854-6.362-6.362s2.854-6.361 6.362-6.361 6.361 2.854 6.361 6.361-2.853 6.362-6.361 6.362zm236.845 0c-3.508 0-6.362-2.854-6.362-6.362s2.854-6.361 6.362-6.361 6.361 2.854 6.361 6.361-2.853 6.362-6.361 6.362zm-172.293-197.943c12.919-6.001 32.01-9.306 53.758-9.306 21.747 0 40.839 3.305 53.758 9.306 9.721 4.516 15.296 10.218 15.296 15.644 0 5.427-5.575 11.129-15.296 15.645-12.919 6.001-32.011 9.306-53.758 9.306-21.748 0-40.839-3.305-53.758-9.306-9.721-4.516-15.296-10.218-15.296-15.645s5.575-11.129 15.296-15.644zm-17.713 44.166c15.563 10.35 40.577 16.427 71.471 16.427 30.815 0 55.781-6.046 71.352-16.348 3.338 19.549 10.133 34.729 18.953 46.776l-84.447 66.049h-11.491l-85.37-66.771c9.048-11.992 16.054-26.977 19.532-46.133zm57.072 132.904h29.021v29.021h-29.021zm-47.209 109.274c-13.906 0-25.22-11.31-25.22-25.211 0-10.315 6.399-19.545 15.707-23.353l30.21 37.749c-4.665 6.68-12.398 10.815-20.697 10.815zm61.72 99.332-37.582-37.581 27.582-27.581v13.265c0 5.522 4.477 10 10 10 5.522 0 10-4.478 10-10v-13.265l27.581 27.581zm86.941-124.543c0 13.901-11.313 25.211-25.221 25.211-8.298 0-16.031-4.136-20.697-10.815l30.21-37.749c9.309 3.809 15.708 13.039 15.708 23.353zm-81.499 26.847c-3.299-2.143-7.584-2.143-10.883 0l-130.03-162.477c10.628-5.417 21.231-11.955 30.741-20.461l32.181 25.17v21.95c0 5.522 4.477 10 10 10s10-4.478 10-10v-6.308l19.828 15.508c-1.127 1.619-1.789 3.586-1.789 5.708v49.021c0 5.522 4.477 10 10 10h49.021c5.522 0 10-4.478 10-10v-49.021c0-2.122-.661-4.089-1.789-5.708l19.827-15.507v6.307c0 5.522 4.478 10 10 10s10-4.478 10-10v-21.949l31.09-24.317c9.594 8.685 20.347 15.189 31.131 20.484z"/></g></g></svg>