<svg id="Capa_1" enable-background="new 0 0 512 512" height="512" viewBox="0 0 512 512" width="512" xmlns="http://www.w3.org/2000/svg"><g><g><path d="m58.784 162.446 8.263 23.235c.354.995 1.054 1.783 1.938 2.181l20.643 9.301c2.916 1.314 2.916 5.961 0 7.275l-20.643 9.301c-.884.398-1.584 1.187-1.938 2.181l-8.263 23.235c-1.167 3.283-5.296 3.283-6.463 0l-8.263-23.235c-.354-.995-1.054-1.783-1.938-2.181l-20.643-9.301c-2.917-1.314-2.917-5.961 0-7.275l20.643-9.301c.884-.398 1.584-1.187 1.938-2.181l8.263-23.235c1.167-3.282 5.295-3.282 6.463 0z"/><path d="m118.671 26.457 6.129 17.235c.263.738.782 1.323 1.438 1.618l15.313 6.899c2.163.975 2.163 4.422 0 5.396l-15.313 6.899c-.656.295-1.175.88-1.438 1.618l-6.129 17.235c-.866 2.435-3.928 2.435-4.794 0l-6.13-17.235c-.262-.738-.782-1.323-1.438-1.618l-15.313-6.899c-2.163-.975-2.163-4.422 0-5.396l15.313-6.899c.656-.295 1.175-.88 1.438-1.618l6.13-17.235c.865-2.435 3.928-2.435 4.794 0z"/><path d="m468.209 177.351 6.129 17.235c.263.738.782 1.323 1.438 1.618l15.313 6.899c2.163.975 2.163 4.422 0 5.396l-15.313 6.899c-.656.295-1.175.88-1.438 1.618l-6.129 17.235c-.866 2.435-3.928 2.435-4.794 0l-6.129-17.235c-.263-.738-.782-1.323-1.438-1.618l-15.313-6.899c-2.163-.975-2.163-4.421 0-5.396l15.313-6.899c.656-.296 1.175-.88 1.438-1.618l6.129-17.235c.866-2.435 3.928-2.435 4.794 0z"/><ellipse cx="429.262" cy="109.917" rx="18.043" ry="18.043" transform="matrix(.23 -.973 .973 .23 223.661 502.441)"/><circle cx="53.31" cy="80.343" r="7.783"/></g><g><path d="m395.851 257.409c-17.181-24.328-37.26-43.212-59.179-56.102.461-1.631.724-3.345.724-5.122v-20.749c0-4.834-1.841-9.236-4.838-12.58 16.297-25.699 23.323-47.4 20.888-64.721-1.108-18.811-9.981-34.952-22.914-44.548v-43.528c0-5.555-4.504-10.059-10.059-10.059s-10.059 4.504-10.059 10.059v34.821c-2.691-.46-5.446-.695-8.254-.658-14.678.216-28.299 7.764-37.574 19.969-9.608-11.927-23.407-19.054-38.113-18.855-2.285.034-4.532.253-6.738.626v-35.903c0-5.556-4.504-10.059-10.06-10.059s-10.059 4.504-10.059 10.059v44.619c-12.944 9.64-21.828 25.869-22.846 44.53-2.159 17.456 4.784 38.853 20.656 63.829-2.901 3.322-4.674 7.653-4.674 12.399v20.749c0 1.78.265 3.496.727 5.13-21.919 12.888-42 31.764-59.181 56.093-33.925 48.039-52.608 111.733-52.608 179.349 0 17.347 10.589 41.564 61.034 58.428 32.436 10.843 75.888 16.815 122.35 16.815s89.914-5.972 122.35-16.815c50.445-16.863 61.034-41.081 61.034-58.428 0-67.616-18.683-131.31-52.607-179.348zm-182.98-62.452v-18.291h104.406v18.291zm-16.102-93.527c.037-.279.062-.558.076-.838.939-19.47 14.083-34.905 29.925-35.137.118-.002.235-.003.353-.003 12.154 0 23.474 9.267 28.243 23.171 1.396 4.069 5.222 6.795 9.514 6.795.046 0 .092 0 .139-.001 4.348-.059 8.165-2.906 9.462-7.057 4.435-14.186 15.678-23.839 27.975-24.02.125-.002.248-.003.373-.003 16.138 0 29.524 15.432 30.552 35.324.017.332.05.664.1.992 2.306 15.182-7.307 35.741-20.767 55.894h-95.523c-13.126-19.62-22.463-39.732-20.422-55.117zm-94.961 335.327c0-102.114 45.344-189.236 108.526-221.748.434.03.866.066 1.308.066h26.024c-7.087 13.054-18.87 36.77-30.46 69.116-16.101 44.932-34.685 115.488-33.108 198.728-8.935-1.97-17.309-4.247-24.995-6.816-17.663-5.904-47.295-18.866-47.295-39.346zm92.499 49.944c-2.23-81.734 15.931-151.169 31.627-195.13 15.61-43.723 31.915-71.579 34.885-76.495h8.512c2.97 4.917 19.275 32.773 34.885 76.495 15.696 43.961 33.856 113.397 31.627 195.13-21.667 3.391-45.711 5.18-70.767 5.18-25.058 0-49.102-1.789-70.769-5.18zm186.738-10.597c-7.686 2.569-16.06 4.846-24.995 6.816 1.578-83.24-17.007-153.796-33.108-198.728-11.59-32.346-23.373-56.063-30.46-69.116h26.024c.433 0 .856-.036 1.282-.065 63.194 32.502 108.552 119.621 108.552 221.746 0 20.48-29.632 33.442-47.295 39.347z"/><path d="m135.349 398.572c-.412 0-.827-.025-1.246-.077-5.513-.681-9.432-5.703-8.751-11.216.913-7.392 2.343-15.165 4.252-23.102 1.298-5.401 6.725-8.729 12.132-7.429 5.401 1.299 8.727 6.731 7.429 12.133-1.731 7.202-3.025 14.222-3.845 20.863-.628 5.096-4.965 8.828-9.971 8.828z"/><path d="m148.383 347.563c-1.038 0-2.092-.162-3.133-.503-5.279-1.729-8.159-7.41-6.43-12.691.328-1.001.578-1.913.764-2.788 1.155-5.434 6.5-8.906 11.931-7.747 5.434 1.155 8.903 6.497 7.748 11.931-.337 1.584-.769 3.176-1.323 4.866-1.388 4.24-5.326 6.932-9.557 6.932z"/></g></g></svg>