<?xml version="1.0"?>
<svg xmlns="http://www.w3.org/2000/svg" viewBox="0 0 512 512" width="512" height="512"><g id="Out_line" data-name="Out line"><rect x="448" y="408" width="16" height="88"/><path d="M463.17871,351.29346l-16.64551-5.54822-14.84082-51.943A7.99983,7.99983,0,0,0,424,288H368v16h8v6.11133l-7.15527,14.311a8,8,0,0,0,1.498,9.23438L376,339.31348v8.44018l-5.08105,1.27027a39.74014,39.74014,0,0,0-24.59864,18.22558l-11.9082,19.84863L328,380.686V368a8.00008,8.00008,0,0,0-8-8h-4.68652l-21.65625-21.65674a8.00122,8.00122,0,0,0-11.31446,0l-24,24A7.97383,7.97383,0,0,0,256,367.99487a7.97383,7.97383,0,0,0-2.34277-5.65161l-24-24a8.00122,8.00122,0,0,0-11.31446,0L196.68652,360H192a8.00008,8.00008,0,0,0-8,8v12.686l-6.41211,6.4121L165.67969,367.25a39.7391,39.7391,0,0,0-24.59864-18.22607L136,347.75366v-8.44018l5.65723-5.65674a8,8,0,0,0,1.498-9.23438L136,310.11133V304h8V288H88a7.99983,7.99983,0,0,0-7.69238,5.80225L65.4668,345.74518l-16.64649,5.54828A47.94,47.94,0,0,0,16,396.83057V496H32V396.83057a31.96023,31.96023,0,0,1,21.87988-30.3584l15.959-5.31934L96,387.314V400H88a8.00008,8.00008,0,0,0-8,8v40a8.00008,8.00008,0,0,0,8,8h32a8.00008,8.00008,0,0,0,8-8V408a8.00008,8.00008,0,0,0-8-8h-8V386.42188l14.65625-21.98438a7.98576,7.98576,0,0,0,.59375-1.06287c.05835-.125.09644-.257.14819-.38464.09937-.24634.20069-.4917.27515-.74646.00732-.02478.01978-.04779.02686-.07263l9.5,2.37549A23.84148,23.84148,0,0,1,151.959,375.48193l17.18067,28.63428a8.001,8.001,0,0,0,12.51758,1.54053l11.3623-11.36231,11.13477,7.42334L174.71973,437.04,152,420.00024V392H136V496h16V440l19.2002,14.3999a8.00014,8.00014,0,0,0,10.94531-1.27832l39.76562-47.71875,31.7461-31.74609A7.97383,7.97383,0,0,0,256,368.00513a7.97383,7.97383,0,0,0,2.34277,5.65161l31.7461,31.74609,39.76562,47.71875a7.99918,7.99918,0,0,0,10.94531,1.27832L360,440v56h16V392H360v28.00024L337.28027,437.04,307.8457,401.71777l11.13477-7.42334,11.3623,11.36231a8.001,8.001,0,0,0,12.51758-1.54053L360.041,375.48145a23.84249,23.84249,0,0,1,14.75878-10.93506l9.5-2.375c.00708.02508.01978.04834.0271.07336.074.25287.17456.49622.2732.74085.05224.12915.09082.26281.1499.38922a7.988,7.988,0,0,0,.59375,1.06268L400,386.42188V400h-8a8.00008,8.00008,0,0,0-8,8v40a8.00008,8.00008,0,0,0,8,8h32a8.00008,8.00008,0,0,0,8-8V408a8.00008,8.00008,0,0,0-8-8h-8V387.314l26.16113-26.16113,15.958,5.31934A31.95984,31.95984,0,0,1,480,396.83057V496h16V396.83057A47.93959,47.93959,0,0,0,463.17871,351.29346ZM112,440H96V416h16ZM94.03418,304H120v8a7.99583,7.99583,0,0,0,.84473,3.57764l5.42089,10.84277-3.92285,3.92285A8.00035,8.00035,0,0,0,120,336v8h-4.68652l-5.65625-5.65674a8.00018,8.00018,0,0,0-11.31446,11.31348l8,8a7.998,7.998,0,0,0,4.13941,2.19769l-7.72534,11.58844L80.98535,349.67151Zm120.94629,85.70557L200,379.71875V376a8.00076,8.00076,0,0,0,5.65723-2.34326L224,355.31348,236.68652,368ZM288,355.31348l18.34277,18.34326A8.00076,8.00076,0,0,0,312,376v3.71875l-14.98047,9.98682L275.31348,368ZM416,440H400V416h16Zm1.96582-136,13.04883,45.67151-21.77149,21.77136-7.72534-11.58844a7.998,7.998,0,0,0,4.13941-2.19769l8-8a8.00018,8.00018,0,0,0-11.31446-11.31348L396.68652,344H392v-8a8.00035,8.00035,0,0,0-2.34277-5.65674l-3.92285-3.92285,5.42089-10.84277A7.99583,7.99583,0,0,0,392,312v-8Z"/><rect x="48" y="408" width="16" height="88"/><path d="M488,16H24a8.00008,8.00008,0,0,0-8,8V344H32V32H480V344h16V24A8.00008,8.00008,0,0,0,488,16Z"/><path d="M128,272V120a7.99873,7.99873,0,0,0-5.0293-7.42773l-40-16A7.99953,7.99953,0,0,0,72,104V272H88V115.81641l24,9.60009V272Z"/><path d="M440,272V104a7.99953,7.99953,0,0,0-10.9707-7.42773l-40,16A7.99873,7.99873,0,0,0,384,120V272h16V125.4165l24-9.60009V272Z"/><polygon points="352 272 160 272 160 288 211.69 288 188.245 340.751 202.866 347.249 229.199 288 282.801 288 309.134 347.249 323.755 340.751 300.31 288 352 288 352 272"/><path d="M56,48v.01477A7.96795,7.96795,0,0,0,48,56V320H64V68.42383l72,32.72754V272h16V256H360v16h16V101.15137l72-32.72754V328h16V56a7.96795,7.96795,0,0,0-8-7.98523V48Zm96,192V128h31.36084l-7.3374,95.38623,15.95312,1.22754L199.40845,128h4.80078l41.45459,50.66669-19.85523,24.26739,12.38282,10.13184L256,191.29987l17.80859,21.76605,12.38282-10.13184-19.85523-24.26739L307.79077,128h4.80078l7.43189,96.61377,15.95312-1.22754L328.63916,128H360V240Zm72.88184-112h62.23632L256,166.03345ZM364.68945,88.71729A8,8,0,0,0,360,96v16H152V96a8,8,0,0,0-4.68945-7.28271L92.93262,64H419.06738Z"/></g></svg>
