<svg height="512" viewBox="0 0 60 60" width="512" xmlns="http://www.w3.org/2000/svg"><g id="Page-1" fill="none" fill-rule="evenodd"><g id="024---Red-Carpet" fill="rgb(0,0,0)" fill-rule="nonzero" transform="translate(0 -1)"><path id="Shape" d="m52 59h-10c-.5522847 0-1 .4477153-1 1s.4477153 1 1 1h10c.722629-.0021266 1.3879117-.3939011 1.7402599-1.0248115.3523481-.6309104.3369572-1.4028246-.0402599-2.0191885l-14.763-23.991c-.3578573-.6013653-1.0072214-.9684634-1.707-.965h-14.46c-.6956189-.0034776-1.3416123.3597987-1.7.956l-14.77 23.997c-.37880056.6165159-.39505544 1.3895577-.04250539 2.0214518.35255004.6318941 1.01891742 1.0240834 1.74250539 1.0255482h29c.5522847 0 1-.4477153 1-1s-.4477153-1-1-1h-29l14.77-24h.662l-9.126 19.578c-.1441109.3095978-.12027.6713302.0632274.9593361.1834975.2880059.5012778.4624605.8427726.4626639h6c.5522847 0 1-.4477153 1-1s-.4477153-1-1-1h-4.431l8.858-19h8.723l8.857 19h-17.007c-.5522847 0-1 .4477153-1 1s.4477153 1 1 1h18.576c.3414948-.0002034.6592751-.174658.8427726-.4626639.1834974-.2880059.2073383-.6497383.0632274-.9593361l-9.125-19.578h.66z"/><path id="Shape" d="m56 36.1v-26.126c2.1680529-1.61387795 2.6647613-4.65674381 1.1224649-6.8762882s-4.56734-2.81524785-6.8360135-1.34617459c-2.2686734 1.46907326-2.9627379 4.473075-1.5684514 6.78846279l-1.146.919c-1.1000359-.69809824-2.5272409-.5945599-3.515.255-2.807 2.386-10.112 3.286-14.057 3.286s-11.25-.9-14.057-3.286c-.9919625-.83765322-2.4108554-.94024325-3.513-.254l-1.148-.92c.4655177-.76576968.7137299-1.64384618.718-2.54.0122198-2.35450246-1.6198877-4.39849193-3.91871202-4.90764612-2.2988243-.50915419-4.64137752.65450912-5.62450168 2.79397121-.98312417 2.1394621-.34038986 4.6749227 1.5432137 6.08767491v26.126c-2.3264168.4784327-3.99700171 2.5248992-4 4.9v1c0 1.1045695.8954305 2 2 2h10c1.1045695 0 2-.8954305 2-2v-1c-.0029983-2.3751008-1.6735832-4.4215673-4-4.9v-26.024l1.174.941c-.4075341 1.1675096-.0569403 2.465461.883 3.269 5.391 4.582 16.674 4.714 17.943 4.714s12.552-.132 17.943-4.714c.9399403-.803539 1.2905341-2.1014904.883-3.269l1.174-.941v26.024c-2.3264168.4784327-3.9970017 2.5248992-4 4.9v1c0 1.1045695.8954305 2 2 2h10c1.1045695 0 2-.8954305 2-2v-1c-.0029983-2.3751008-1.6735832-4.4215673-4-4.9zm-2-.1h-2v-25.1c.6598632.134694 1.3401368.134694 2 0zm-1-33c1.6568542 0 3 1.34314575 3 3s-1.3431458 3-3 3-3-1.34314575-3-3 1.3431458-3 3-3zm-46 0c1.65685425 0 3 1.34314575 3 3s-1.34314575 3-3 3-3-1.34314575-3-3 1.34314575-3 3-3zm0 8c.33584585.0003359.67087107-.0331667 1-.1v25.1h-2v-25.1c.32912893.0668333.66415415.1003359 1 .1zm5 30v1h-10v-1c0-1.6568542 1.34314575-3 3-3h4c1.6568542 0 3 1.3431458 3 3zm34.648-28.238c-4.848 4.119-15.454 4.238-16.648 4.238s-11.8-.119-16.647-4.238c-.420841-.3589851-.4709851-.991159-.112-1.412s.991159-.4709851 1.412-.112c4.357 3.708 15.238 3.762 15.347 3.762s10.988-.054 15.35-3.762c.420841-.3589851 1.0530149-.308841 1.412.112s.308841 1.0530149-.112 1.412zm1.352 29.238v-1c0-1.6568542 1.3431458-3 3-3h4c1.6568542 0 3 1.3431458 3 3v1z"/></g></g></svg>